<svg xmlns="http://www.w3.org/2000/svg" xmlns:xlink="http://www.w3.org/1999/xlink" viewBox="0 0 48 48"><defs><style>.cls-1{opacity:0.15;}.cls-2{fill:#2962ff;}.cls-3,.cls-4,.cls-5{opacity:0.2;}.cls-3{fill:url(#名称未設定グラデーション_19);}.cls-4{fill:url(#名称未設定グラデーション_19-2);}.cls-5{fill:url(#名称未設定グラデーション_19-3);}.cls-6{fill:#fff;}</style><linearGradient id="名称未設定グラデーション_19" x1="24" y1="47" x2="24" y2="15" gradientUnits="userSpaceOnUse"><stop offset="0" stop-color="#fff" stop-opacity="0"/><stop offset="1" stop-color="#fff"/></linearGradient><linearGradient id="名称未設定グラデーション_19-2" x2="24" y2="17" xlink:href="#名称未設定グラデーション_19"/><linearGradient id="名称未設定グラデーション_19-3" x2="24" y2="19" xlink:href="#名称未設定グラデーション_19"/></defs><title>ic_launcher</title><g id="ic_launcher"><circle class="cls-1" cx="24" cy="24.5" r="23.5"/><circle class="cls-2" cx="24" cy="23.5" r="23.5"/><path class="cls-3" d="M24,47A23.5,23.5,0,0,0,46.18,15.74C40,18.36,38.78,27,30.5,27,20.75,27,20.75,15,11,15,5.67,15,3.25,18.58.57,21.83c0,.55-.07,1.11-.07,1.67A23.5,23.5,0,0,0,24,47Z"/><path class="cls-4" d="M24,47A23.51,23.51,0,0,0,47,28.39,9.84,9.84,0,0,1,43.5,29C33.75,29,33.75,17,24,17S14.25,29,4.5,29A9.84,9.84,0,0,1,1,28.39,23.51,23.51,0,0,0,24,47Z"/><path class="cls-5" d="M24,47A23.5,23.5,0,0,0,47.5,23.5h0C45.42,21.07,43.05,19,39,19c-9.75,0-9.75,12-19.5,12C10.07,31,9.76,19.78.93,19A23.49,23.49,0,0,0,24,47Z"/><path class="cls-1" d="M24,27.5a3,3,0,0,0,3-3v-6a3,3,0,0,0-6,0v6A3,3,0,0,0,24,27.5Zm5.3-3a5.3,5.3,0,0,1-10.6,0H17a7,7,0,0,0,6,6.72V34.5h2V31.22a7,7,0,0,0,6-6.72Z"/><path class="cls-6" d="M24,26.5a3,3,0,0,0,3-3v-6a3,3,0,0,0-6,0v6A3,3,0,0,0,24,26.5Zm5.3-3a5.3,5.3,0,0,1-10.6,0H17a7,7,0,0,0,6,6.72V33.5h2V30.22a7,7,0,0,0,6-6.72Z"/></g></svg>