<svg id="ic_launcher_foreground" xmlns="http://www.w3.org/2000/svg" viewBox="0 0 108 108"><defs><style>.cls-1{opacity:0.15;}.cls-2{fill:#fff;}</style></defs><title>ic_launcher_foreground</title><path class="cls-1" d="M54,59.25a4.48,4.48,0,0,0,4.48-4.5l0-9a4.5,4.5,0,0,0-9,0v9A4.49,4.49,0,0,0,54,59.25Z"/><path class="cls-1" d="M62,54.75a8,8,0,0,1-15.9,0H43.5a10.48,10.48,0,0,0,9,10.08v4.92h3V64.83a10.45,10.45,0,0,0,9-10.08Z"/><path class="cls-2" d="M54,57.75a4.48,4.48,0,0,0,4.48-4.5l0-9a4.5,4.5,0,0,0-9,0v9A4.49,4.49,0,0,0,54,57.75Z"/><path class="cls-2" d="M62,53.25a8,8,0,0,1-15.9,0H43.5a10.48,10.48,0,0,0,9,10.08v4.92h3V63.33a10.45,10.45,0,0,0,9-10.08Z"/></svg>