<svg xmlns="http://www.w3.org/2000/svg" xmlns:xlink="http://www.w3.org/1999/xlink" viewBox="0 0 108 108"><defs><style>.cls-1{fill:#2962ff;}.cls-2{fill:url(#名称未設定グラデーション_3);}.cls-3{fill:url(#名称未設定グラデーション_3-2);}.cls-4{fill:url(#名称未設定グラデーション_3-3);}</style><linearGradient id="名称未設定グラデーション_3" x1="54" y1="95" x2="54" y2="47" gradientUnits="userSpaceOnUse"><stop offset="0" stop-color="#fff" stop-opacity="0"/><stop offset="1" stop-color="#fff" stop-opacity="0.2"/></linearGradient><linearGradient id="名称未設定グラデーション_3-2" y1="93" y2="45" xlink:href="#名称未設定グラデーション_3"/><linearGradient id="名称未設定グラデーション_3-3" y1="91" y2="43" xlink:href="#名称未設定グラデーション_3"/></defs><title>ic_launcher_background</title><g id="ic_launcher_background"><rect class="cls-1" width="108" height="108"/><path class="cls-2" d="M100.49,47C88.87,47,88.87,63,77.24,63S65.62,47,54,47,42.37,63,30.74,63,19.12,47,7.49,47A10.55,10.55,0,0,0,0,50V95H108V50A10.56,10.56,0,0,0,100.49,47Z"/><path class="cls-3" d="M90.75,61C79.12,61,79.12,45,67.49,45S55.87,61,44.24,61,32.62,45,21,45C10.17,45,9.42,58.85,0,60.77V93H108V46.83C101.86,51,99.93,61,90.75,61Z"/><path class="cls-4" d="M106.75,59C95.12,59,95.12,43,83.49,43S71.87,59,60.24,59,48.62,43,37,43,25.37,59,13.74,59C6.55,59,3.8,52.87,0,48.2V91H108V58.93C107.6,59,107.18,59,106.75,59Z"/></g></svg>